# xmcd
#
# Track frame offsets: 
#        225
#        26313
#        53613
#        76038
#        102963
#        120888
#        140388
#        168288
#        189663
#        230913
#        246288
#        267063
#
# Disc length: 3930 seconds
#
# Revision: 1
# Processed by: cddbd v1.5.2PL0 Copyright (c) Steve Scherf et al.
# Submitted via: ExactAudioCopy v0.95b4
#
DISCID=8f0f570c
DTITLE=Massimo Salvagnini Quartet - Felix
DYEAR=2005
DGENRE=Jazz
TTITLE0=Cari Ragazzi
TTITLE1=Care Ragazze
TTITLE2=Tumbobo
TTITLE3=Magroselazz
TTITLE4=Gino
TTITLE5=Bumba di corsa
TTITLE6=Bàliut Privato
TTITLE7=ABCDario
TTITLE8=Ellenò
TTITLE9=Alfia
TTITLE10=Bumba a Passeggio
TTITLE11=Bàliut Privato
EXTD=YEAR: 2005
EXTT0=
EXTT1=
EXTT2=
EXTT3=
EXTT4=
EXTT5=
EXTT6=
EXTT7=
EXTT8=
EXTT9=
EXTT10=
EXTT11=
PLAYORDER=
